<svg width="321" height="322" viewBox="0 0 321 322" fill="none" xmlns="http://www.w3.org/2000/svg">
<path fill-rule="evenodd" clip-rule="evenodd" d="M138.5 299.5C138.5 311.65 148.35 321.5 160.5 321.5C172.65 321.5 182.5 311.65 182.5 299.5V183H299C311.15 183 321 173.15 321 161C321 148.85 311.15 139 299 139H182.5V22.5C182.5 10.3497 172.65 0.5 160.5 0.5C148.35 0.5 138.5 10.3497 138.5 22.5V139H22C9.84974 139 0 148.85 0 161C0 173.15 9.84973 183 22 183H138.5V299.5Z" fill="url(#paint0_radial)"/>
<defs>
<radialGradient id="paint0_radial" cx="0" cy="0" r="1" gradientUnits="userSpaceOnUse" gradientTransform="translate(205.841 -148.364) rotate(88.8949) scale(520.117 1350.28)">
<stop offset="0.333333" stop-color="#3DF1FF"/>
<stop offset="1" stop-color="#33AEEA"/>
</radialGradient>
</defs>
</svg>
