<svg width="379" height="379" viewBox="0 0 379 379" fill="none" xmlns="http://www.w3.org/2000/svg">
<path d="M191.647 35.5313C105.054 34.3617 34.3616 105.054 35.5312 191.647C36.6859 274.694 104.306 342.314 187.353 343.469C273.961 344.653 344.638 273.961 343.454 187.368C342.314 104.306 274.693 36.686 191.647 35.5313ZM285.227 277.773C284.932 278.092 284.571 278.342 284.168 278.506C283.766 278.669 283.333 278.742 282.899 278.72C282.465 278.697 282.042 278.579 281.659 278.375C281.276 278.17 280.942 277.884 280.682 277.536C274.061 268.873 265.953 261.457 256.735 255.633C237.889 243.537 214.009 236.875 189.5 236.875C164.991 236.875 141.111 243.537 122.264 255.633C113.048 261.454 104.939 268.868 98.3178 277.529C98.0577 277.876 97.7243 278.163 97.3411 278.367C96.958 278.572 96.5345 278.69 96.1008 278.712C95.6671 278.735 95.2337 278.662 94.8314 278.498C94.4291 278.335 94.0677 278.084 93.7728 277.766C72.0519 254.318 59.7479 223.679 59.2187 191.721C58.0121 119.689 117.12 59.3964 189.182 59.2188C261.243 59.0411 319.781 117.557 319.781 189.5C319.806 222.229 307.464 253.758 285.227 277.773V277.773Z" fill="url(#paint0_radial)"/>
<path d="M189.5 106.594C174.903 106.594 161.704 112.064 152.325 122.005C142.947 131.947 138.261 145.693 139.319 160.446C141.466 189.5 163.977 213.188 189.5 213.188C215.023 213.188 237.489 189.5 239.68 160.453C240.776 145.841 236.127 132.221 226.593 122.094C217.177 112.101 204.001 106.594 189.5 106.594Z" fill="url(#paint1_radial)"/>
<defs>
<radialGradient id="paint0_radial" cx="0" cy="0" r="1" gradientUnits="userSpaceOnUse" gradientTransform="translate(232.991 -107.302) rotate(88.8949) scale(498.998 1295.39)">
<stop offset="0.333333" stop-color="#3DF1FF"/>
<stop offset="1" stop-color="#33AEEA"/>
</radialGradient>
<radialGradient id="paint1_radial" cx="0" cy="0" r="1" gradientUnits="userSpaceOnUse" gradientTransform="translate(203.724 57.1609) rotate(88.9563) scale(172.711 423.455)">
<stop offset="0.333333" stop-color="#3DF1FF"/>
<stop offset="1" stop-color="#33AEEA"/>
</radialGradient>
</defs>
</svg>
